<?xml version="1.0" standalone="no"?>
<!DOCTYPE svg PUBLIC "-//W3C//DTD SVG 20010904//EN"
 "http://www.w3.org/TR/2001/REC-SVG-20010904/DTD/svg10.dtd">
<svg version="1.0" xmlns="http://www.w3.org/2000/svg"
 width="300.000000pt" height="300.000000pt" viewBox="0 0 300.000000 300.000000"
 preserveAspectRatio="xMidYMid meet">
<metadata>
Created by potrace 1.10, written by Peter Selinger 2001-2011
</metadata>
<g transform="translate(0.000000,300.000000) scale(0.100000,-0.100000)"
fill="#000000" stroke="none">
<path d="M1953 2374 c-10 -21 -9 -29 4 -44 16 -18 17 -18 30 8 9 18 11 28 4
30 -6 2 -11 10 -11 18 0 22 -14 16 -27 -12z"/>
<path d="M1350 2239 c-206 -26 -386 -48 -398 -48 -23 -1 -24 -3 -16 -53 4 -29
6 -77 5 -106 -1 -46 1 -55 19 -59 24 -7 24 -5 0 -45 -24 -39 -26 -88 -5 -128
10 -20 12 -30 4 -30 -6 0 -56 -14 -111 -31 -93 -29 -101 -34 -114 -65 -18 -44
-18 -128 1 -164 15 -30 17 -30 100 -30 l84 0 3 -77 3 -78 -42 -40 c-31 -30
-44 -51 -49 -82 l-6 -42 -71 -3 c-65 -3 -70 -5 -74 -27 -2 -13 0 -29 5 -35 5
-6 8 -38 8 -70 l-1 -60 -89 -13 c-98 -14 -117 -24 -100 -51 19 -30 174 -129
350 -223 l91 -49 164 0 c320 0 1180 57 1377 91 34 6 62 16 62 23 0 12 -35 32
-160 91 l-74 35 3 44 c1 28 -5 61 -17 89 l-20 44 -120 38 -120 38 -4 75 c-3
63 -7 77 -27 93 l-23 19 35 0 c28 0 37 5 43 23 7 21 8 100 2 126 -2 9 27 22
87 39 50 14 91 26 92 27 5 3 -21 75 -26 75 -3 0 -4 35 -1 79 l5 79 -78 4 c-42
3 -79 7 -82 10 -11 11 -17 108 -11 162 7 54 9 56 37 56 23 0 32 7 49 40 25 48
25 73 1 125 l-18 40 -194 48 c-107 26 -196 47 -199 46 -3 -1 -174 -23 -380
-50z m507 -4 c182 -42 178 -41 88 -49 -44 -4 -92 -9 -107 -12 -20 -4 -28 -2
-28 9 0 19 -103 61 -131 54 -11 -3 -28 -3 -37 1 -14 5 -12 7 8 13 47 13 98 9
207 -16z m-267 -6 c0 -6 -9 -8 -21 -4 -12 4 -24 3 -28 -3 -4 -7 -15 -6 -31 3
-24 14 -23 14 28 15 30 0 52 -4 52 -11z m142 -57 c-10 -3 -132 54 -132 62 0 3
32 -10 71 -27 39 -17 66 -33 61 -35z m13 33 c28 -13 43 -24 35 -24 -8 0 -35
11 -60 24 -58 31 -40 31 25 0z m-322 -6 c4 -16 2 -19 -11 -14 -9 4 -27 10 -39
12 -35 8 -27 23 11 23 26 0 35 -5 39 -21z m174 -45 c-6 -7 -117 48 -117 58 0
5 27 -6 61 -23 34 -16 59 -32 56 -35z m-267 47 c0 -4 -30 -11 -67 -15 -38 -4
-83 -9 -102 -13 l-34 -6 44 -23 c44 -22 49 -22 153 -11 l108 11 -44 23 c-24
13 -32 21 -18 17 42 -11 83 -35 74 -43 -5 -5 -57 -13 -116 -19 -106 -11 -109
-11 -168 15 -57 24 -76 42 -47 44 20 1 212 26 215 28 1 0 2 -3 2 -8z m204 -50
c-5 -6 -94 43 -94 51 0 5 22 -4 49 -19 27 -16 48 -30 45 -32z m77 38 c23 -11
39 -23 36 -25 -3 -3 -27 6 -54 20 -26 14 -42 25 -35 26 7 0 31 -9 53 -21z
m499 -31 c20 -33 25 -87 11 -121 -4 -10 -7 7 -6 41 0 90 -8 95 -130 89 l-100
-6 85 13 c47 7 93 14 103 14 10 1 26 -12 37 -30z m-1030 12 c0 -5 26 -23 58
-39 84 -44 50 -37 -43 8 -72 35 -77 39 -47 40 17 1 32 -3 32 -9z m270 -4 c23
-13 21 -14 -42 -21 -69 -7 -136 1 -121 15 4 5 35 11 68 13 33 2 62 4 65 5 3 1
16 -5 30 -12z m-256 -42 l86 -38 288 33 c158 18 314 34 347 36 69 5 -130 -22
-418 -56 l-198 -23 8 -31 c19 -76 -6 -154 -52 -164 -17 -3 -17 -2 -3 13 9 9
21 16 27 16 19 0 33 77 21 120 -9 35 -17 42 -68 65 -81 36 -160 76 -141 71 9
-2 55 -21 103 -42z m982 -9 c10 -54 -3 -102 -29 -109 -59 -16 -62 -12 -60 66
1 40 2 74 3 76 0 1 18 2 40 2 37 0 39 -2 46 -35z m-939 -51 c-3 -3 -14 -1 -25
5 -12 6 -24 11 -29 11 -4 -1 12 -12 37 -25 25 -13 38 -24 30 -25 -21 0 -82 39
-76 49 3 4 -12 16 -34 26 -22 10 -40 22 -40 27 0 4 32 -8 71 -28 39 -19 69
-38 66 -40z m774 39 c1 -21 1 -55 -1 -77 -1 -21 3 -42 10 -46 6 -4 -25 -10
-68 -14 -72 -6 -257 -29 -447 -56 -38 -5 -98 -12 -132 -16 l-62 -6 11 38 c5
21 8 63 5 93 -4 40 -3 51 6 42 6 -6 11 -41 10 -82 l-1 -72 80 6 c51 3 84 10
90 19 5 7 7 46 6 86 l-3 72 35 1 c19 0 118 11 220 23 258 33 240 33 241 -11z
m63 15 c8 -30 8 -82 0 -102 -3 -9 -16 -16 -28 -16 -19 0 -21 5 -21 70 0 65 1
70 21 70 14 0 24 -8 28 -22z m128 -61 c-9 -19 -11 -13 -10 33 0 53 1 54 10 22
8 -23 8 -39 0 -55z m-1101 53 c22 -12 37 -25 34 -30 -3 -5 4 -12 16 -15 11 -4
18 -9 16 -12 -3 -2 -19 3 -37 12 -18 9 -34 14 -37 12 -2 -3 21 -17 53 -31 31
-15 55 -29 52 -32 -3 -3 -37 11 -74 30 -40 20 -61 35 -49 36 17 0 17 2 5 10
-13 9 -13 10 0 10 9 1 5 6 -10 15 -38 22 -14 18 31 -5z m397 -55 c4 -18 3 -19
-10 -3 -8 11 -22 15 -38 12 -24 -5 -25 -8 -22 -65 4 -54 6 -59 27 -59 13 0 29
8 35 18 10 15 10 15 8 -3 -3 -16 -12 -21 -43 -23 l-40 -3 0 70 c-1 75 3 81 55
78 16 -1 26 -9 28 -22z m-98 -11 c21 -55 6 -124 -28 -124 -15 0 -18 11 -18 75
-1 67 1 75 18 75 11 0 23 -11 28 -26z m-207 -44 c15 -7 27 -17 27 -22 0 -12
-6 -10 -63 22 -57 32 -72 37 -61 19 4 -8 -1 -9 -17 -5 -16 5 -12 0 11 -13 19
-11 40 -20 45 -20 6 0 -1 6 -15 14 -46 26 -10 15 51 -16 34 -17 59 -32 56 -35
-2 -3 -21 5 -41 17 -20 12 -39 19 -42 16 -3 -3 16 -17 43 -31 26 -14 41 -25
33 -25 -27 0 -163 83 -166 102 -1 9 2 17 7 17 6 0 7 5 4 10 -6 9 35 -7 128
-50z m96 24 c6 -21 6 -44 1 -57 -7 -19 -9 -16 -9 16 -1 21 -6 47 -11 58 -7 12
-7 19 -1 19 6 0 15 -16 20 -36z m194 6 c7 -28 -7 -74 -24 -78 -11 -2 -14 10
-14 48 0 40 3 50 16 50 9 0 19 -9 22 -20z m-238 -10 c12 -5 14 -9 6 -9 -11 -1
-10 -5 5 -16 10 -8 14 -15 8 -15 -5 0 -19 7 -30 15 -10 8 -14 15 -9 15 6 0 3
5 -5 10 -18 12 -2 12 25 0z m875 -49 c-8 -4 -62 -21 -119 -37 -57 -15 -98 -30
-92 -32 6 -2 43 6 82 18 39 12 74 19 76 16 7 -6 1 -8 -82 -31 -33 -9 -68 -19
-79 -22 -10 -3 -16 -1 -13 4 4 6 -20 11 -60 11 -36 1 -68 4 -71 7 -3 3 23 5
59 4 47 0 93 9 174 34 110 35 157 46 125 28z m-994 -63 c-6 -4 -19 -8 -28 -8
-14 0 -18 -9 -18 -40 0 -29 4 -40 15 -40 8 0 24 -9 35 -20 21 -21 73 -28 400
-51 91 -6 167 -13 170 -16 6 -6 -111 1 -385 23 -142 11 -181 17 -188 29 -5 9
-20 20 -33 25 -20 8 -24 16 -24 49 0 37 19 68 33 54 4 -3 7 1 7 11 0 14 2 15
14 4 10 -9 11 -15 2 -20z m984 8 c-19 -7 -48 -16 -65 -20 -42 -10 -20 10 25
22 51 15 82 13 40 -2z m20 -16 c0 -11 -139 -54 -147 -46 -7 6 -2 8 82 35 33
10 61 19 63 20 1 1 2 -3 2 -9z m-569 -12 c-24 -5 -102 -20 -173 -32 -100 -18
-131 -20 -138 -10 -8 9 13 15 87 24 54 6 123 15 153 20 30 4 69 8 85 8 24 0
20 -2 -14 -10z m-421 -28 c0 -23 -4 -30 -20 -30 -14 0 -20 7 -20 23 0 27 7 37
27 37 8 0 13 -12 13 -30z m628 -1 c6 -10 22 -19 35 -21 17 -2 23 -10 25 -38 3
-32 -1 -37 -33 -51 -19 -9 -35 -13 -35 -9 0 5 14 13 30 19 38 13 43 57 7 70
-13 5 -29 16 -36 25 -8 10 -30 16 -55 17 -22 0 -50 5 -61 10 -13 6 2 7 45 3
46 -5 69 -12 78 -25z m232 27 c0 -7 -112 -38 -117 -32 -9 8 60 32 100 35 9 0
17 -1 17 -3z m-350 -27 c25 -1 56 -5 70 -9 29 -10 -153 -2 -185 8 -16 5 -13 7
15 12 19 3 39 3 45 -2 5 -4 29 -8 55 -9z m215 -18 c-8 -46 1 -99 21 -126 15
-20 15 -20 117 7 56 15 111 30 122 34 11 4 16 3 12 -1 -18 -21 -204 -64 -272
-64 -41 -1 -65 3 -57 8 38 24 55 116 27 145 -22 22 -18 36 11 36 24 0 25 -2
19 -39z m263 24 c-8 -9 -172 -54 -177 -49 -8 8 3 12 79 32 77 21 107 26 98 17z
m-529 -27 c64 -6 119 -14 123 -17 7 -6 -253 15 -282 23 -32 8 48 6 159 -6z
m526 3 c-14 -13 -185 -65 -191 -58 -3 3 27 15 68 27 40 12 84 25 98 30 34 11
36 11 25 1z m-342 -27 c20 -8 23 -34 3 -34 -22 0 -46 -29 -46 -56 0 -20 -5
-24 -27 -23 -27 0 -27 1 -5 9 24 10 29 25 10 36 -9 6 -442 40 -540 43 -10 1
-18 6 -18 11 0 11 22 10 270 -10 63 -6 159 -13 213 -16 l97 -7 0 32 c0 23 4
31 13 27 6 -3 20 -9 30 -12z m-143 -15 c66 -6 55 -6 -50 -2 -74 3 -164 9 -200
13 -79 10 116 2 250 -11z m500 16 c0 -7 -223 -76 -228 -70 -6 6 5 10 116 45
88 28 112 34 112 25z m9 -29 c-9 -7 -230 -69 -234 -64 -5 5 193 66 219 67 11
1 17 -1 15 -3z m-809 -71 c262 -17 457 -39 275 -30 -49 2 -213 10 -363 16
-150 7 -269 16 -265 20 14 13 78 26 88 19 6 -5 125 -15 265 -25z m925 20 c-5
-3 -73 -22 -151 -43 -111 -30 -143 -36 -152 -26 -9 10 -1 15 36 23 26 6 76 19
112 30 52 16 192 30 155 16z m-15 -33 c0 -10 -240 -76 -247 -68 -3 3 21 12 53
21 33 9 86 25 119 35 72 22 75 22 75 12z m-1241 -9 c-46 -3 -58 -8 -68 -26
l-11 -22 5 22 c5 17 1 22 -17 26 -13 2 15 4 62 4 57 -1 67 -2 29 -4z m-105
-107 c1 -76 -1 -86 -17 -86 -25 0 -50 64 -42 108 12 64 23 84 42 74 14 -8 17
-26 17 -96z m529 87 c-18 -2 -48 -2 -65 0 -18 2 -4 4 32 4 36 0 50 -2 33 -4z
m286 -9 c8 -7 -194 -2 -224 6 -16 4 26 5 95 2 69 -3 127 -6 129 -8z m-744 -79
c0 -81 -6 -103 -19 -69 -8 20 -8 102 0 132 12 44 19 21 19 -63z m470 65 c121
-6 248 -13 283 -16 l62 -6 0 -58 c0 -31 3 -70 6 -86 l6 -29 -159 7 c-87 4
-261 13 -388 20 l-229 13 -7 25 c-12 43 -10 90 7 121 l15 30 92 -5 c51 -3 191
-10 312 -16z m785 -10 c-95 -32 -109 -35 -94 -20 13 13 131 49 159 48 11 0
-18 -13 -65 -28z m-280 10 c0 -5 -9 -10 -20 -10 -31 0 -40 -88 -16 -165 4 -11
-1 -4 -10 15 -12 26 -15 51 -11 97 l6 62 -82 4 c-77 3 -76 3 26 5 66 1 107 -2
107 -8z m207 -1 c-26 -15 -158 -52 -164 -46 -2 3 22 13 54 22 32 9 69 20 83
25 35 12 48 11 27 -1z m-1225 -87 c3 -34 1 -57 -4 -50 -4 7 -7 40 -7 73 1 73
6 62 11 -23z m1373 69 c-13 -13 -205 -64 -212 -57 -7 7 0 10 102 40 86 26 125
32 110 17z m-429 -58 c-1 -32 2 -73 6 -90 12 -55 -17 -40 -35 18 -20 60 -20
69 -7 103 18 48 36 31 36 -31z m89 -15 c0 -40 4 -81 9 -90 6 -13 4 -18 -6 -18
-8 0 -22 16 -31 35 -27 57 -20 145 12 145 13 0 16 -12 16 -72z m144 47 c-11
-10 -129 -42 -129 -34 0 4 28 17 63 27 57 17 78 20 66 7z m211 -22 c0 -5 -56
-24 -125 -44 -69 -20 -125 -32 -125 -28 0 3 39 19 88 33 48 15 98 31 112 36
32 11 50 12 50 3z m-165 -24 c-33 -10 -67 -18 -75 -16 -8 2 12 10 45 19 83 22
103 20 30 -3z m-115 -5 c-25 -8 -49 -12 -55 -10 -12 4 53 24 80 24 11 0 0 -6
-25 -14z m278 1 c-9 -9 -250 -76 -255 -71 -3 3 12 9 33 15 22 6 77 22 124 35
90 26 107 29 98 21z m-263 -24 c-6 -5 -26 -12 -45 -15 l-35 -6 30 15 c34 16
64 20 50 6z m-755 -71 c99 -8 95 -8 -70 -7 l-175 1 0 -54 0 -55 535 0 535 0 3
53 c2 36 -1 52 -9 52 -10 0 -10 3 -1 12 18 18 32 -7 32 -59 0 -63 -7 -73 -50
-73 -21 0 -40 -5 -42 -10 -2 -6 -46 -10 -113 -9 -61 1 -285 2 -500 3 -381 1
-390 1 -397 21 -7 23 -10 130 -3 136 5 5 100 1 255 -11z m-180 -35 c33 -19 65
-19 81 1 11 13 55 15 370 12 270 -2 361 -6 371 -15 16 -17 67 -16 98 2 14 8
37 14 53 15 25 0 27 -3 27 -39 0 -22 -4 -43 -10 -46 -5 -3 -30 3 -54 15 -55
25 -84 25 -109 3 -17 -16 -52 -18 -368 -21 l-350 -3 -19 23 c-17 21 -20 22
-52 9 -18 -7 -48 -16 -65 -18 -33 -5 -33 -5 -33 36 0 46 14 52 60 26z m905
-59 c17 -12 15 -13 -23 -12 -41 1 -54 9 -29 19 21 9 33 7 52 -7z m-235 -72
c-31 -7 -760 -9 -760 -1 0 4 174 6 388 6 213 -1 380 -3 372 -5z m304 -35 c10
-52 6 -122 -10 -154 l-14 -30 7 30 c12 45 10 153 -3 165 -6 6 -18 8 -26 5 -13
-5 -14 -13 -7 -38 10 -37 11 -104 1 -129 -4 -10 -7 18 -7 61 0 92 -10 108 -68
114 -23 2 -5 4 39 5 l82 2 6 -31z m-302 14 c-73 -2 -190 -2 -260 0 -70 1 -10
3 133 3 143 0 200 -2 127 -3z m-762 -10 c-8 -3 -18 -11 -22 -17 -14 -20 -8
-116 8 -147 8 -17 13 -33 10 -36 -15 -15 -37 74 -34 138 2 67 3 69 28 68 15 0
19 -3 10 -6z m26 -65 c-1 -40 2 -86 7 -103 6 -23 5 -26 -3 -13 -15 25 -24 109
-16 152 4 20 8 36 10 36 1 0 2 -33 2 -72z m232 65 c-21 -2 -57 -2 -80 0 -24 2
-7 4 37 4 44 0 63 -2 43 -4z m722 -29 c11 -29 13 -87 4 -132 l-6 -30 -222 -6
c-121 -4 -327 -8 -456 -10 l-235 -4 -12 47 c-13 49 -16 110 -8 133 5 12 70 15
393 17 213 1 389 4 391 7 2 2 35 4 73 4 64 0 69 -2 78 -26z m69 -46 c1 -15 -3
-30 -9 -33 -6 -4 -10 14 -9 47 0 39 3 48 9 33 5 -11 9 -32 9 -47z m-1105 5
c-4 -31 0 -64 10 -90 16 -47 5 -61 -12 -15 -21 54 -23 72 -12 112 14 54 20 51
14 -7z m55 -20 c-1 -54 -2 -56 -11 -26 -10 29 -5 83 7 83 3 0 5 -26 4 -57z
m-89 -48 c0 -19 -11 -19 -36 0 -18 14 -18 14 9 15 17 0 27 -5 27 -15z m-29
-25 c30 -16 50 -30 46 -30 -11 0 -107 49 -107 55 0 8 5 6 61 -25z m1249 -5 c0
-3 -7 -17 -16 -30 l-16 -25 -197 2 -196 2 165 6 c91 4 179 8 197 9 22 1 34 7
38 21 6 18 25 29 25 15z m-1297 -40 c25 -14 51 -33 59 -42 7 -9 -15 -1 -49 18
-35 19 -63 37 -63 42 0 11 3 9 53 -18z m111 -26 c47 -28 86 -56 86 -61 0 -10
-17 -2 -112 55 -38 21 -68 43 -68 48 0 14 3 13 94 -42z m1276 37 l35 -13 -63
-4 c-64 -4 -71 -2 -50 19 15 15 33 14 78 -2z m-1352 -65 c41 -24 72 -45 69
-47 -5 -5 -135 70 -151 87 -13 14 -10 13 82 -40z m170 15 c45 -23 55 -24 202
-21 l155 3 -143 -8 c-79 -4 -145 -9 -146 -11 -2 -2 1 -28 7 -57 12 -58 -2
-134 -29 -162 -11 -10 -9 -1 5 30 23 50 26 97 11 150 -8 28 -21 41 -67 67 -68
38 -64 44 5 9z m377 12 c144 -1 141 -1 -87 -10 -211 -8 -240 -8 -265 7 -27 15
-23 16 87 11 63 -3 183 -7 265 -8z m918 -26 c25 -43 26 -126 3 -167 -10 -17
-14 -21 -10 -10 17 49 16 126 -1 165 l-17 38 -102 -3 c-75 -3 -88 -1 -51 4 28
5 75 8 104 7 51 -1 56 -3 74 -34z m-1400 -69 c65 -41 40 -36 -40 8 -103 56
-113 62 -113 72 0 9 75 -31 153 -80z m857 77 c-85 -4 -207 -7 -270 -7 l-115 1
120 6 c66 3 188 6 270 6 l150 0 -155 -6z m305 -1 c4 -6 13 -8 20 -5 19 7 26
-79 9 -133 -8 -25 -14 -52 -14 -58 0 -16 32 -17 48 -1 9 9 12 9 12 0 0 -8 22
-12 68 -13 37 -1 -95 -10 -293 -20 -198 -10 -469 -24 -602 -31 -134 -7 -243
-13 -243 -12 0 0 8 16 18 35 12 24 17 57 17 117 0 70 2 82 16 82 22 0 34 -99
19 -150 -20 -70 -18 -74 52 -66 34 3 67 11 73 17 5 5 10 52 10 103 l0 94 80 6
c44 3 214 11 378 18 163 6 297 15 297 20 0 12 28 10 35 -3z m-1105 -45 c33
-20 59 -39 56 -41 -6 -6 -113 54 -121 68 -10 15 1 11 65 -27z m1310 17 c21
-40 7 -144 -23 -163 -7 -4 -31 -8 -55 -8 l-44 0 9 33 c4 17 7 60 6 95 l-2 62
49 0 c39 0 52 -4 60 -19z m-155 -132 c-8 -19 -12 -25 -9 -14 4 11 10 52 13 90
l6 70 3 -56 c2 -36 -3 -69 -13 -90z m-1254 75 c54 -31 99 -63 99 -70 0 -10
-18 -3 -57 22 -180 115 -199 137 -42 48z m190 19 c15 -41 13 -108 -5 -144 -9
-18 -16 -40 -16 -51 0 -11 -7 -18 -20 -18 -20 0 -20 2 6 45 22 39 26 54 21 98
-3 29 -8 62 -12 75 -11 33 13 28 26 -5z m174 -36 c4 -31 2 -71 -4 -95 -11 -38
-15 -42 -43 -42 -29 0 -30 2 -24 31 3 17 6 60 6 95 l0 64 29 0 c28 0 30 -3 36
-53z m34 -25 c0 -37 -3 -75 -7 -84 -4 -10 -7 23 -7 71 0 49 3 87 8 84 4 -2 7
-34 6 -71z m-536 36 c-5 -33 -3 -34 129 -119 l133 -85 465 22 c892 42 844 39
870 71 10 13 20 29 22 34 2 6 48 -11 103 -37 113 -54 110 -53 104 -58 -22 -22
-755 -75 -1386 -101 l-142 -6 -117 60 c-118 62 -334 198 -334 212 0 5 15 11
33 14 55 10 122 23 124 24 1 1 -1 -14 -4 -31z m95 -6 c31 -21 79 -51 105 -67
26 -15 46 -30 43 -32 -3 -3 -49 22 -103 56 -133 83 -130 81 -115 81 7 0 39
-17 70 -38z m163 7 c23 -11 39 -23 36 -26 -3 -3 -25 7 -49 21 -52 31 -43 34
13 5z m-124 -65 c57 -36 103 -70 103 -75 0 -5 -24 6 -54 25 -97 62 -166 109
-166 112 0 10 22 -1 117 -62z m138 30 c35 -23 31 -36 -5 -16 -16 9 -30 20 -30
25 0 11 8 9 35 -9z m9 -40 c9 -3 16 -12 16 -20 0 -17 -12 -18 -28 -2 -22 22
-16 33 12 22z"/>
<path d="M2000 2074 l0 -66 27 7 c34 8 43 21 43 62 0 49 -9 63 -41 63 l-29 0
0 -66z m50 35 c14 -25 3 -79 -15 -79 -8 0 -14 16 -17 45 -3 38 1 47 19 54 1 1
7 -8 13 -20z"/>
<path d="M1802 2073 c-25 -12 -36 -13 -45 -4 -16 16 -37 14 -59 -6 -13 -11
-32 -16 -55 -14 -22 2 -39 -3 -45 -11 -7 -10 -11 -10 -15 0 -7 18 -30 15 -42
-5 -9 -16 -10 -16 -11 5 0 15 -6 22 -21 22 -17 0 -20 -5 -17 -37 l3 -38 93 2
c62 1 101 7 116 16 12 9 34 13 49 10 14 -3 47 3 72 13 35 15 45 24 43 39 -4
26 -25 29 -66 8z m10 -26 c-36 -18 -46 -19 -63 -9 -16 10 -24 9 -48 -9 -16
-12 -34 -19 -39 -15 -5 3 -23 2 -38 -3 -61 -19 -93 -21 -109 -5 -17 18 -20 34
-4 34 5 0 8 -4 5 -9 -3 -5 0 -14 8 -20 11 -9 18 -8 30 4 9 9 16 12 16 6 0 -6
9 -11 20 -11 11 0 20 5 20 11 0 5 4 8 9 4 5 -3 13 -1 16 5 5 8 11 7 21 -1 12
-10 21 -8 44 10 25 18 33 19 49 9 16 -10 26 -9 53 4 18 9 38 17 43 17 6 0 -9
-10 -33 -22z"/>
<path d="M1935 2070 c0 -41 4 -60 12 -60 17 0 27 43 19 85 -11 59 -31 42 -31
-25z"/>
<path d="M1265 1995 c0 -43 4 -65 12 -65 16 0 26 71 14 103 -17 44 -26 31 -26
-38z"/>
<path d="M1016 1624 c-9 -8 -16 -22 -16 -30 0 -8 -4 -14 -10 -14 -5 0 -10 9
-10 20 0 13 -7 20 -20 20 -25 0 -34 -21 -26 -55 5 -21 12 -25 46 -25 21 0 41
-4 44 -9 7 -10 179 -14 254 -5 46 6 52 9 52 29 0 23 -1 23 -100 18 -68 -4
-100 -2 -100 5 0 6 -10 12 -22 14 -13 2 -23 8 -23 13 -1 35 -42 46 -69 19z
m30 -17 c-24 -18 -17 -50 14 -58 21 -6 22 -7 5 -8 -25 -1 -45 17 -45 39 0 18
19 40 34 40 5 0 2 -6 -8 -13z m142 -59 l67 -2 -60 -3 c-60 -4 -110 11 -98 30
3 5 10 2 15 -7 7 -12 26 -16 76 -18z"/>
<path d="M1462 1598 c-7 -7 -12 -18 -12 -26 0 -14 -12 -14 -82 4 -25 6 -28 4
-28 -19 0 -14 6 -29 13 -34 6 -4 83 -8 170 -8 151 0 158 1 155 20 -4 23 -34
33 -105 34 -46 1 -53 4 -53 21 0 23 -38 28 -58 8z m-33 -55 c14 3 36 8 49 12
12 4 22 3 22 -2 0 -5 -8 -10 -17 -11 -10 -1 -34 -4 -53 -7 -24 -5 -41 -1 -55
10 -19 16 -19 16 4 5 13 -7 35 -10 50 -7z m216 -2 c12 -5 -9 -7 -50 -4 -91 6
-105 11 -30 12 33 0 69 -4 80 -8z"/>
<path d="M1160 1410 c0 -6 112 -10 315 -10 203 0 315 4 315 10 0 6 -112 10
-315 10 -203 0 -315 -4 -315 -10z"/>
<path d="M1153 1378 c-2 -5 143 -7 324 -6 329 2 294 6 -105 10 -118 2 -216 0
-219 -4z"/>
<path d="M1438 1223 l-398 -3 0 -55 0 -55 405 0 c353 0 406 2 411 15 8 19 -5
106 -14 103 -4 -2 -186 -4 -404 -5z m392 -21 c0 -4 -21 -6 -47 -4 -76 5 -83
10 -15 11 34 0 62 -2 62 -7z m-352 -9 c-75 -2 -201 -2 -280 0 -79 1 -17 3 137
3 154 0 218 -2 143 -3z m332 -22 c0 -16 -103 -21 -417 -21 -272 0 -313 2 -313
15 0 13 47 15 365 15 201 0 365 -4 365 -9z m26 -26 c-4 -12 -31 -15 -153 -13
l-148 2 148 3 c144 3 147 4 148 26 0 12 3 16 6 9 3 -7 2 -19 -1 -27z"/>
<path d="M1582 967 c-18 -21 -24 -62 -13 -90 9 -22 7 -28 -9 -37 -17 -9 -20
-7 -20 15 0 35 -46 36 -60 1 -10 -28 -26 -40 -40 -31 -6 4 -4 17 6 36 8 17 14
45 12 62 -2 26 -8 33 -29 35 -22 3 -29 -2 -38 -29 -6 -18 -11 -42 -11 -54 0
-13 -7 -28 -15 -35 -19 -16 -34 -5 -17 12 19 19 14 48 -8 48 -25 0 -42 -32
-38 -72 4 -41 28 -56 66 -42 18 7 36 8 45 3 26 -15 165 -4 185 14 16 15 32 17
132 15 19 0 46 1 60 3 14 1 55 -1 91 -5 55 -7 68 -5 82 9 34 34 12 108 -30
100 -65 -13 -72 -16 -75 -35 -2 -12 -7 -19 -13 -18 -5 2 -8 8 -6 13 21 53 6
95 -35 95 -39 0 -57 -28 -50 -77 4 -34 3 -43 -9 -43 -10 0 -15 10 -15 30 0 27
-3 30 -30 30 -25 0 -30 -4 -30 -24 0 -14 -4 -28 -10 -31 -6 -4 -7 10 -4 39 5
30 2 51 -6 61 -15 18 -54 20 -68 2z m248 -36 c0 -9 -7 -27 -16 -40 -14 -19
-14 -25 -3 -32 28 -17 57 -10 63 16 4 14 13 25 21 25 24 0 28 -20 9 -42 -18
-19 -18 -20 11 -16 27 3 30 6 29 38 -2 32 -1 33 9 12 19 -42 -1 -58 -69 -54
-32 2 -67 8 -77 14 -13 7 -22 7 -26 0 -9 -16 -60 -26 -74 -15 -20 16 -89 7
-127 -16 -40 -24 -51 -26 -68 -9 -9 9 -15 9 -24 0 -17 -17 -63 -15 -78 3 -11
13 -15 13 -33 0 -30 -21 -44 -19 -57 8 -10 20 -10 20 3 5 18 -23 29 -23 59 1
24 19 24 19 36 0 7 -10 22 -19 35 -19 23 0 60 33 50 44 -4 3 -1 6 6 6 8 0 10
-7 6 -20 -9 -29 18 -35 54 -14 31 18 39 38 21 49 -15 9 -12 61 5 75 25 21 48
4 43 -33 -3 -17 -9 -40 -13 -50 -7 -16 -4 -18 21 -15 19 2 30 9 32 23 6 29 20
41 34 27 8 -8 8 -15 -2 -27 -20 -24 2 -42 37 -29 26 9 28 13 25 56 -3 36 0 48
15 56 21 12 43 -1 43 -27z m-402 -2 c-11 -6 -18 -21 -17 -37 l1 -27 14 30 c13
26 14 27 10 5 -3 -14 -6 -28 -6 -32 0 -4 -9 -6 -20 -5 -15 1 -19 6 -14 22 3
11 8 28 10 38 3 9 13 17 22 17 16 -1 15 -2 0 -11z"/>
<path d="M1791 946 c-14 -17 -11 -61 4 -61 15 0 31 53 19 65 -8 8 -15 6 -23
-4z"/>
<path d="M1597 943 c-10 -9 -8 -46 3 -63 9 -13 11 -13 20 0 14 22 12 70 -3 70
-8 0 -17 -3 -20 -7z"/>
<path d="M2134 933 c0 -32 -2 -70 -7 -85 -7 -27 -6 -28 32 -28 21 0 44 6 50
14 17 20 25 78 17 120 -7 35 -8 36 -50 36 l-44 0 2 -57z m79 8 c3 -16 2 -45
-4 -65 -8 -28 -15 -36 -33 -36 -21 0 -22 4 -22 65 0 64 0 65 27 65 21 0 28 -6
32 -29z"/>
<path d="M1130 888 c0 -35 -3 -73 -6 -85 -5 -19 -2 -23 15 -23 14 0 22 8 27
28 3 15 8 33 10 41 3 8 2 34 -2 58 -5 33 -11 43 -25 43 -17 0 -19 -8 -19 -62z
m20 -85 c-9 -15 -10 -12 -6 16 3 18 7 52 8 75 1 32 3 28 5 -16 2 -32 -1 -66
-7 -75z"/>
<path d="M800 2037 c0 -13 -9 -32 -20 -42 -24 -22 -26 -35 -5 -35 9 0 22 -14
29 -30 13 -31 26 -30 26 1 0 10 10 25 22 33 l22 15 -27 21 c-15 12 -27 28 -27
35 0 8 -4 17 -10 20 -6 3 -10 -4 -10 -18z"/>
<path d="M2270 1952 c0 -10 -5 -23 -12 -30 -9 -9 -8 -15 4 -24 9 -7 18 -20 20
-28 3 -9 10 -3 21 19 14 29 15 35 2 48 -8 8 -15 19 -15 24 0 5 -4 9 -10 9 -5
0 -10 -8 -10 -18z"/>
<path d="M530 1671 c-9 -17 -8 -25 4 -36 13 -14 16 -13 25 2 6 13 5 24 -4 36
-13 18 -14 18 -25 -2z"/>
<path d="M710 1352 c0 -10 -5 -23 -11 -29 -9 -9 -8 -16 5 -28 9 -9 16 -22 16
-28 0 -7 8 2 19 18 16 26 16 32 5 46 -8 8 -14 21 -14 27 0 7 -4 12 -10 12 -5
0 -10 -8 -10 -18z"/>
<path d="M2230 1320 c0 -11 -9 -28 -20 -37 -25 -22 -25 -30 -1 -38 10 -3 22
-17 25 -30 8 -32 26 -32 26 -1 0 14 9 31 20 39 19 13 19 14 -5 35 -14 12 -25
29 -25 37 0 8 -4 15 -10 15 -5 0 -10 -9 -10 -20z"/>
</g>
</svg>
